<svg version="1.0" xmlns="http://www.w3.org/2000/svg"
 width="1400" height="830" viewBox="0 0 1400.000000 830.000000"
 preserveAspectRatio="xMidYMid meet">

<g transform="translate(0.000000,830.000000) scale(0.100000,-0.100000)"
fill="currentColor" stroke="none">
<path d="M4997 7275 c-31 -7 -65 -19 -75 -28 -15 -13 -31 -14 -122 -5 -160 16
-185 14 -229 -16 -31 -22 -52 -27 -114 -30 -42 -2 -82 -8 -89 -13 -7 -4 -47
-8 -89 -8 -65 0 -81 -4 -116 -27 -34 -22 -51 -27 -107 -26 -68 1 -126 -17
-175 -54 -13 -10 -36 -18 -50 -18 -29 0 -149 -44 -165 -60 -6 -6 -34 -10 -63
-10 -65 0 -116 -20 -138 -53 -9 -15 -30 -28 -48 -31 -19 -4 -52 -24 -79 -50
-42 -40 -52 -44 -107 -48 -70 -5 -97 -24 -107 -74 -3 -18 -15 -41 -26 -51 -24
-21 -43 -66 -53 -121 -5 -29 -1 -53 13 -88 26 -62 36 -160 17 -167 -7 -3 -21
-27 -31 -52 -15 -41 -16 -56 -6 -115 10 -61 9 -73 -13 -146 -18 -56 -25 -103
-25 -159 0 -45 -7 -108 -16 -140 -9 -38 -13 -77 -9 -105 5 -38 2 -50 -17 -75
-21 -27 -23 -40 -24 -162 -3 -154 -8 -183 -41 -237 -16 -24 -28 -63 -33 -101
-4 -34 -12 -71 -18 -81 -16 -30 -52 -133 -72 -204 -10 -36 -25 -81 -33 -100
-32 -75 -41 -118 -42 -195 -1 -54 -7 -90 -18 -110 -9 -16 -17 -35 -17 -42 0
-13 -47 -28 -125 -39 -27 -4 -60 -11 -73 -15 -16 -6 -34 -3 -61 11 -21 10 -49
18 -62 18 -13 -1 -48 -1 -76 0 -55 2 -68 17 -38 42 8 6 30 40 50 75 76 136 25
220 -132 214 -32 -1 -78 1 -103 5 -27 5 -56 3 -72 -3 -33 -12 -68 -65 -68
-102 0 -15 -10 -34 -25 -47 -13 -12 -36 -45 -50 -73 -31 -61 -29 -89 15 -176
19 -36 30 -74 30 -100 0 -38 6 -48 73 -118 63 -66 80 -77 115 -82 34 -5 48 -1
74 19 42 32 122 42 155 21 29 -19 96 -12 153 17 35 18 44 19 78 8 l39 -12 -33
-33 c-38 -37 -50 -93 -40 -178 3 -30 2 -56 -3 -59 -5 -3 -12 -22 -15 -41 -13
-66 -43 -123 -75 -139 -36 -19 -52 -62 -51 -137 2 -94 -13 -171 -41 -214 -15
-22 -32 -69 -39 -105 -10 -48 -22 -75 -47 -103 -19 -21 -34 -49 -34 -65 -1
-15 -3 -54 -4 -87 -2 -52 -12 -77 -70 -190 -65 -126 -67 -132 -62 -188 4 -48
1 -65 -19 -103 -19 -35 -25 -64 -27 -124 -2 -43 -8 -85 -14 -92 -20 -26 -44
-103 -48 -153 -2 -28 -11 -71 -19 -95 -9 -25 -16 -53 -16 -63 0 -10 -10 -39
-22 -65 -11 -26 -21 -60 -21 -77 0 -16 -9 -43 -20 -59 -14 -20 -21 -47 -22
-93 -2 -39 -8 -70 -17 -81 -16 -18 -31 -110 -29 -176 1 -53 42 -138 78 -164
54 -38 111 -56 139 -43 39 17 76 108 85 210 5 49 16 103 27 126 11 22 23 56
27 75 4 19 13 42 20 50 23 27 41 128 50 275 6 98 51 189 114 230 62 41 73 81
42 158 -22 53 -22 55 -4 89 10 19 33 57 51 84 28 41 33 55 28 90 -4 33 0 48
21 79 19 28 28 57 34 119 9 89 34 196 55 238 8 15 14 36 14 47 0 11 18 58 40
105 22 46 40 89 40 96 0 7 18 29 41 49 39 36 40 39 40 102 0 42 7 80 20 109
11 25 23 67 26 93 3 27 11 54 18 61 21 21 44 72 55 122 9 38 21 58 56 90 36
34 44 47 44 77 0 20 -4 47 -9 60 -18 47 29 190 67 204 9 4 28 15 42 24 24 17
170 69 194 69 6 0 23 8 36 17 31 22 177 73 210 73 14 0 34 7 44 15 11 9 41 15
68 15 42 0 54 5 85 35 20 20 48 38 62 41 14 2 42 13 61 24 33 18 65 34 196 96
28 13 64 24 80 24 16 0 38 6 49 14 11 7 36 18 55 24 19 6 64 23 100 38 36 15
89 29 119 30 43 2 71 13 142 54 49 27 99 50 111 50 13 0 31 7 41 15 11 7 38
17 60 20 23 4 49 13 57 20 8 8 35 23 60 35 47 22 60 28 180 98 41 24 83 48 92
53 10 5 46 9 80 9 38 0 68 5 77 14 9 7 48 24 86 36 39 13 86 34 105 47 19 12
39 23 44 23 5 0 20 10 33 22 17 16 37 22 82 24 68 3 110 20 164 69 31 28 42
32 61 25 34 -13 106 7 141 39 17 15 40 34 51 42 72 48 133 101 158 137 17 25
43 47 66 56 21 8 41 20 45 26 3 6 31 29 61 51 30 22 59 52 65 66 5 13 29 51
54 83 25 32 45 62 45 65 0 4 27 36 60 72 39 41 60 72 60 88 0 13 6 36 14 52
27 53 56 138 56 162 0 13 9 39 21 58 18 28 20 42 14 94 -5 44 -2 77 11 125 15
56 16 73 6 110 -7 24 -12 58 -12 75 0 28 -39 79 -61 79 -5 0 -19 12 -33 27
-19 20 -24 36 -23 66 1 43 -16 63 -90 102 -57 30 -124 77 -147 103 -15 17 -38
25 -79 31 -33 4 -62 13 -66 19 -10 17 -58 32 -101 32 -38 0 -75 23 -65 41 19
29 -67 79 -116 66 -10 -3 -35 1 -56 9 -21 7 -59 13 -84 14 -33 0 -51 6 -64 20
-15 17 -29 20 -79 18 -35 -1 -71 4 -85 11 -14 8 -38 11 -59 8 -19 -4 -80 1
-136 9 -55 8 -140 14 -189 13 -57 -2 -91 1 -99 9 -15 15 -75 14 -151 -3z m267
-285 c43 -15 90 -22 182 -24 113 -3 130 -6 180 -32 46 -23 67 -28 127 -27 74
1 109 -11 170 -59 21 -17 41 -22 85 -23 48 -1 73 -9 154 -49 66 -34 107 -61
128 -87 16 -21 30 -42 30 -47 0 -5 13 -26 29 -46 17 -21 35 -54 42 -74 6 -20
18 -45 26 -54 15 -17 15 -22 -3 -141 -4 -25 0 -54 10 -82 17 -43 17 -44 -9
-85 -14 -22 -28 -55 -32 -73 -3 -18 -23 -55 -44 -83 -21 -28 -41 -64 -45 -80
-9 -45 -23 -58 -106 -98 -65 -31 -79 -42 -90 -72 -8 -23 -26 -43 -55 -60 -24
-13 -49 -37 -58 -53 -10 -21 -24 -30 -52 -34 -43 -7 -164 -82 -194 -121 -19
-24 -204 -136 -226 -136 -5 0 -18 -9 -28 -20 -10 -11 -26 -20 -36 -20 -10 0
-21 -4 -24 -10 -3 -5 -16 -10 -28 -10 -12 -1 -47 -10 -77 -21 -30 -11 -82 -26
-115 -34 -69 -15 -185 -67 -210 -95 -12 -14 -25 -17 -51 -13 -53 9 -208 -44
-253 -86 -26 -24 -50 -36 -84 -42 -26 -4 -60 -16 -75 -27 -15 -10 -43 -25 -62
-32 -19 -7 -42 -21 -50 -31 -15 -18 -52 -30 -155 -51 -27 -6 -66 -16 -85 -23
-19 -8 -47 -16 -61 -19 -14 -3 -41 -16 -60 -29 -40 -27 -157 -72 -166 -64 -8
8 -73 -20 -98 -42 -11 -11 -35 -22 -54 -26 -18 -4 -48 -15 -65 -25 -17 -10
-62 -30 -101 -45 -38 -14 -74 -30 -79 -35 -6 -6 -26 -10 -45 -10 -20 0 -55
-11 -79 -25 -23 -13 -67 -29 -96 -34 -30 -5 -69 -19 -87 -30 -19 -12 -45 -21
-57 -21 -22 0 -23 3 -17 43 4 23 13 53 20 67 62 117 91 204 80 240 -3 9 1 30
10 46 8 16 15 34 15 40 0 5 11 25 24 43 14 18 28 52 31 74 10 61 31 122 59
166 31 48 38 92 28 156 -6 40 -3 63 15 118 12 37 28 77 35 90 7 12 15 51 19
87 4 36 15 97 24 135 10 39 17 88 17 109 -1 21 5 66 14 98 8 33 14 90 14 126
-2 52 3 77 21 112 14 29 23 67 25 105 1 33 10 86 19 119 14 50 15 69 5 125
-19 105 -16 113 60 137 36 12 94 40 128 64 60 40 65 42 115 36 52 -7 117 10
132 34 3 5 25 10 49 10 55 0 104 17 117 41 10 20 62 26 87 10 18 -11 76 7 125
38 38 23 109 43 227 61 36 6 79 15 95 20 19 6 46 5 75 -2 60 -14 92 -14 170 1
137 25 156 28 195 30 23 0 67 -8 99 -19z"/>
<path d="M10280 6045 c-28 -15 -62 -24 -90 -25 -60 0 -194 -26 -228 -44 -16
-8 -34 -22 -41 -30 -8 -9 -21 -16 -31 -16 -9 0 -38 -11 -65 -25 -41 -22 -52
-24 -81 -15 -40 13 -99 4 -136 -21 -16 -12 -43 -19 -71 -19 -31 0 -54 -7 -78
-25 -19 -13 -50 -31 -68 -40 -19 -9 -49 -26 -65 -39 -17 -13 -57 -31 -88 -40
-31 -9 -63 -25 -71 -35 -12 -18 -35 -26 -129 -46 -15 -3 -37 -15 -48 -27 -11
-12 -35 -23 -53 -24 -54 -5 -87 -22 -105 -54 -18 -31 -63 -57 -82 -45 -19 12
-106 -24 -128 -54 -18 -25 -28 -29 -70 -29 -27 0 -59 -5 -71 -11 -11 -7 -56
-12 -99 -12 -120 -1 -180 -21 -253 -88 -34 -31 -78 -61 -98 -66 -81 -23 -99
-159 -32 -229 47 -48 138 -75 246 -75 106 1 144 11 175 44 13 14 33 25 45 25
31 0 63 26 86 72 l20 40 57 -7 c51 -6 61 -4 95 19 21 14 42 26 48 26 18 0 74
32 94 55 19 21 65 38 132 49 58 10 63 3 63 -88 0 -45 5 -87 10 -92 11 -11 -3
-98 -19 -119 -5 -5 -18 -44 -31 -85 -21 -73 -21 -75 -5 -138 17 -62 17 -64 -2
-85 -48 -53 -55 -100 -22 -161 l20 -38 -25 -37 c-31 -45 -32 -60 -6 -111 20
-38 19 -79 0 -105 -4 -5 -11 -25 -15 -43 -4 -18 -19 -47 -33 -64 -33 -39 -34
-101 -2 -153 l22 -35 -20 -34 c-17 -28 -19 -50 -18 -146 l2 -113 -44 -44 c-42
-40 -44 -46 -39 -84 4 -30 16 -52 42 -79 l36 -37 -25 -63 c-14 -35 -26 -71
-26 -79 0 -9 -7 -26 -15 -38 -8 -12 -19 -50 -24 -85 -5 -34 -17 -80 -27 -101
-15 -30 -16 -43 -7 -70 18 -54 -2 -282 -30 -334 -23 -42 -22 -76 3 -98 17 -15
19 -26 14 -66 -6 -42 -4 -49 18 -63 13 -9 50 -21 80 -27 52 -11 60 -9 110 14
68 33 84 47 104 88 8 19 22 46 29 60 12 21 12 37 4 85 -6 32 -15 67 -20 76
-14 27 -11 43 12 72 17 22 20 36 16 70 -5 35 -3 47 14 61 27 25 37 72 26 122
-8 34 -7 47 8 69 12 18 19 53 22 103 2 42 11 104 20 138 15 59 15 66 -2 108
-15 40 -15 50 -4 78 8 18 14 67 14 113 0 53 5 86 13 97 15 17 35 141 33 196
-1 18 8 48 19 66 22 35 26 80 10 90 -6 4 -8 16 -4 28 4 12 7 33 6 47 -2 14 3
46 10 72 9 37 9 53 0 73 -10 23 -9 31 8 55 32 45 36 87 12 119 -13 19 -17 32
-11 42 13 20 10 61 -5 81 -18 24 5 167 41 244 29 65 31 99 7 125 -12 13 -14
28 -9 63 4 26 11 49 16 52 5 3 9 22 9 42 1 60 24 131 48 148 46 32 68 125 42
174 -7 14 -5 32 9 67 17 45 22 48 62 55 49 9 96 26 118 42 30 23 76 31 122 22
62 -12 86 -4 143 49 27 25 57 46 65 47 76 7 113 21 157 58 34 31 51 39 69 34
60 -15 282 59 328 109 21 25 27 41 27 78 0 26 -3 55 -6 64 -22 57 -199 76
-284 30z"/>
<path d="M10687 5574 c-16 -9 -54 -22 -84 -30 -53 -14 -57 -14 -78 6 -40 37
-138 17 -189 -39 -13 -14 -31 -21 -55 -21 -62 0 -189 -36 -230 -65 -48 -32
-71 -65 -78 -109 -4 -27 1 -40 26 -69 42 -48 85 -61 171 -52 l69 7 -1 -34 c-1
-70 -21 -122 -59 -161 -40 -40 -56 -86 -46 -135 4 -18 -2 -40 -19 -67 -13 -22
-24 -54 -24 -70 0 -30 -48 -108 -88 -142 -20 -17 -68 -122 -79 -173 -3 -14
-17 -38 -29 -53 -13 -16 -27 -41 -30 -55 -3 -15 -14 -45 -24 -67 -10 -22 -22
-53 -26 -69 -4 -16 -16 -38 -26 -48 -11 -11 -26 -35 -34 -54 -12 -29 -13 -39
-2 -62 12 -24 11 -31 -14 -67 -21 -29 -29 -56 -33 -100 -3 -33 -9 -76 -15 -95
-6 -20 -7 -73 -4 -126 5 -68 3 -106 -10 -156 -9 -36 -13 -74 -9 -84 14 -37
157 -197 187 -209 37 -16 154 -35 252 -42 55 -4 79 -1 104 12 49 25 89 37 140
40 25 2 68 10 95 18 28 9 61 18 75 21 14 3 44 23 65 45 22 23 46 41 53 41 23
0 126 57 162 89 19 17 51 37 73 43 21 6 42 19 47 29 5 9 43 42 83 72 40 30 84
71 97 90 14 20 45 45 71 57 53 25 99 67 149 134 51 68 59 75 88 82 40 10 81
53 88 93 11 64 27 106 50 126 12 11 29 35 39 54 9 18 34 52 54 75 47 51 63 81
59 109 -1 12 8 40 21 61 21 33 23 46 18 101 -5 57 -4 64 18 85 13 12 31 38 40
57 20 41 8 87 -31 124 -34 31 -53 70 -54 105 -1 72 -1 96 2 127 2 36 -23 78
-58 98 -12 6 -24 24 -27 39 -4 19 -21 37 -55 59 -27 17 -53 31 -58 31 -5 0
-17 13 -26 30 -10 17 -28 32 -45 35 -15 3 -50 17 -78 30 -27 13 -57 26 -66 29
-9 2 -19 20 -23 40 -7 39 -62 86 -101 86 -11 0 -39 13 -63 29 -42 29 -44 29
-159 25 -102 -4 -120 -2 -155 16 -46 24 -73 25 -111 4z m235 -359 c30 -25 57
-30 93 -16 15 6 29 1 55 -20 22 -19 46 -29 67 -29 29 0 33 -3 33 -27 0 -37 33
-90 62 -98 66 -19 78 -27 78 -56 0 -18 12 -43 33 -66 52 -60 65 -85 59 -121
-2 -18 1 -39 8 -47 9 -10 10 -31 6 -64 -4 -31 -2 -59 6 -75 10 -24 8 -30 -19
-59 -38 -41 -57 -89 -50 -130 3 -19 -1 -43 -9 -57 -7 -14 -13 -35 -14 -47 0
-12 -18 -43 -40 -68 -22 -25 -40 -50 -40 -55 0 -5 -17 -14 -38 -19 -38 -11
-94 -60 -105 -94 -4 -9 -2 -29 3 -43 9 -23 6 -29 -21 -53 -18 -14 -52 -48 -78
-75 -25 -26 -64 -57 -85 -68 -45 -23 -52 -30 -84 -75 -13 -18 -35 -34 -52 -38
-30 -7 -174 -97 -220 -139 -35 -31 -71 -45 -138 -52 -63 -7 -86 -16 -119 -46
-52 -48 -225 -42 -258 8 -9 14 -27 29 -41 34 -20 8 -24 16 -24 52 1 33 8 51
30 78 24 27 30 44 30 80 0 30 8 58 25 85 26 43 31 87 15 130 -9 23 -6 32 20
61 28 33 35 54 30 97 -1 10 15 50 35 89 33 62 37 76 31 117 -5 40 -2 52 19 81
14 19 25 39 25 44 0 6 16 42 35 80 19 39 35 80 35 92 0 12 11 42 25 65 14 24
25 53 25 65 0 26 44 110 73 142 12 13 31 40 42 61 32 61 58 101 92 143 18 22
37 57 43 79 l11 39 52 0 c29 0 58 5 64 11 13 13 69 26 117 28 17 1 40 -9 58
-24z"/>
<path d="M7724 5321 c-33 -20 -104 -98 -104 -115 0 -6 -11 -33 -24 -61 -77
-158 -78 -161 -70 -272 5 -82 4 -107 -8 -125 -30 -45 -88 -203 -88 -238 0 -46
-31 -144 -54 -169 -10 -11 -20 -39 -23 -63 -3 -24 -11 -57 -19 -75 -8 -17 -14
-43 -14 -57 0 -15 -12 -44 -26 -66 -21 -31 -25 -48 -22 -82 5 -44 -8 -81 -43
-127 -11 -13 -19 -32 -19 -43 0 -10 -17 -37 -39 -61 -49 -53 -56 -69 -71 -142
-6 -33 -19 -71 -29 -85 -10 -14 -21 -35 -25 -46 -4 -12 -15 -29 -26 -39 -11
-10 -20 -24 -20 -31 0 -18 -67 -139 -85 -154 -8 -7 -15 -17 -15 -22 0 -6 -19
-31 -43 -58 -28 -31 -47 -64 -55 -96 -16 -61 -57 -122 -102 -151 -104 -67
-109 -72 -128 -135 -10 -33 -27 -65 -36 -70 -10 -6 -34 -28 -53 -49 -19 -21
-43 -39 -53 -39 -9 0 -29 -9 -43 -20 -14 -11 -45 -27 -69 -36 -62 -22 -88 -41
-104 -80 -10 -23 -22 -35 -42 -39 -15 -4 -38 -12 -52 -19 -14 -8 -50 -14 -80
-14 -60 0 -130 -26 -177 -66 -19 -16 -41 -24 -71 -24 -28 -1 -62 -11 -99 -31
-42 -23 -70 -31 -108 -31 -56 0 -110 -15 -136 -36 -37 -32 -40 -1 -4 52 41 61
45 145 9 185 -14 16 -14 19 5 38 26 26 49 72 67 132 8 27 20 52 27 56 30 19
49 66 44 109 -4 38 -1 47 29 81 39 44 65 118 58 165 -3 18 2 53 10 77 9 24 16
55 16 68 0 14 10 39 22 55 18 26 20 35 10 61 -13 35 -6 51 44 111 39 46 70
159 55 199 -8 21 -5 29 19 52 41 39 56 79 41 112 -10 22 -8 31 13 62 17 24 24
48 23 75 -1 24 5 42 14 50 27 19 51 75 44 105 -4 19 0 35 14 52 11 14 23 43
27 65 3 21 22 60 40 85 21 28 34 58 34 77 0 16 7 35 15 42 21 17 85 133 85
153 0 9 11 33 25 53 14 20 25 44 25 53 0 9 14 34 30 55 53 69 33 114 -70 159
-90 39 -209 18 -270 -49 -14 -14 -43 -34 -65 -44 -22 -9 -55 -30 -73 -45 -30
-25 -102 -123 -102 -139 0 -4 -11 -22 -24 -39 -13 -18 -27 -41 -30 -53 -4 -12
-24 -35 -46 -53 -22 -18 -40 -37 -40 -44 0 -7 -12 -25 -26 -41 -25 -29 -27
-29 -73 -17 -34 8 -55 9 -75 1 -15 -5 -39 -10 -54 -10 -41 0 -90 -40 -106 -85
-43 -126 -44 -140 -17 -193 27 -52 57 -82 107 -103 64 -29 139 -27 202 5 28
14 63 26 77 26 25 0 25 -1 11 -22 -9 -12 -16 -39 -16 -59 0 -20 -12 -67 -26
-105 -16 -43 -28 -103 -33 -159 -7 -82 -11 -95 -44 -144 -20 -29 -37 -64 -37
-76 0 -13 -11 -46 -25 -73 -14 -28 -25 -54 -25 -60 0 -5 -9 -30 -21 -56 -11
-26 -24 -84 -29 -130 -6 -56 -17 -99 -34 -132 -14 -27 -28 -62 -32 -79 -4 -16
-22 -47 -40 -67 -43 -48 -49 -76 -30 -123 16 -36 15 -38 -9 -57 -33 -26 -55
-69 -55 -108 0 -18 -8 -44 -18 -58 -28 -39 -42 -89 -36 -121 4 -20 -1 -40 -19
-67 -13 -22 -27 -49 -31 -62 -4 -12 -19 -33 -33 -46 -19 -18 -28 -42 -39 -104
-10 -60 -20 -87 -38 -105 -38 -38 -76 -122 -76 -166 0 -65 44 -95 138 -93 41
0 77 8 105 21 24 12 56 21 71 21 35 0 87 30 141 81 22 21 58 42 81 48 23 6 63
27 89 48 45 34 50 35 82 24 57 -21 113 -1 186 68 38 36 39 36 125 36 74 0 92
3 119 23 20 14 46 22 71 22 58 0 83 12 147 70 45 41 61 50 78 44 34 -11 107
-5 139 12 28 14 99 84 163 158 17 19 44 44 62 56 17 11 64 64 105 117 40 54
91 116 114 140 23 23 47 56 54 72 7 17 18 31 24 31 34 0 92 26 125 55 29 27
55 38 129 55 74 18 102 29 137 58 24 21 60 47 79 59 l35 21 19 -36 c10 -21 22
-52 25 -70 4 -19 15 -45 26 -58 10 -13 17 -32 15 -42 -7 -25 18 -54 57 -67 27
-9 35 -18 37 -41 7 -62 22 -101 44 -111 115 -51 166 -82 183 -108 11 -16 34
-39 52 -51 30 -20 42 -21 220 -19 143 2 202 6 245 19 72 22 167 83 175 114 7
30 -39 99 -75 113 -15 6 -37 20 -50 31 -19 19 -36 22 -126 24 -105 2 -105 3
-201 53 -54 28 -103 51 -110 51 -7 0 -16 11 -19 25 -4 15 -26 40 -51 57 -25
18 -45 37 -45 44 0 7 -15 25 -34 42 -68 60 -99 137 -82 204 13 50 -7 115 -40
130 -27 12 -35 34 -32 88 1 19 -2 78 -6 130 -5 52 -8 106 -8 120 0 34 18 164
31 220 6 25 10 64 11 88 0 24 7 57 16 73 11 22 14 44 9 83 -6 48 -4 58 22 96
25 39 29 55 34 149 4 74 11 116 23 139 13 24 17 47 13 77 -2 24 -1 78 3 120 7
69 11 80 42 113 49 52 62 94 42 140 -16 39 -21 112 -9 131 3 7 -3 30 -14 52
-12 22 -21 46 -21 54 0 8 -14 30 -31 50 -25 28 -38 35 -68 35 -20 0 -50 -8
-67 -19z m-298 -1876 l3 -135 -32 0 c-17 0 -49 -3 -71 -7 -37 -6 -38 -5 -30
18 4 13 6 39 5 56 -2 45 35 131 77 175 20 21 38 36 40 33 3 -2 6 -65 8 -140z"/>
<path d="M4405 4298 c-74 -26 -108 -60 -162 -163 -29 -55 -52 -112 -53 -126 0
-15 -11 -46 -24 -70 -17 -29 -26 -63 -27 -99 -1 -30 -7 -68 -12 -85 -5 -16
-10 -51 -12 -77 -2 -26 -10 -60 -18 -75 -8 -15 -28 -54 -46 -87 -18 -33 -31
-73 -31 -93 0 -21 -9 -47 -25 -67 -26 -35 -49 -95 -60 -158 -5 -33 -10 -38
-32 -38 -29 0 -93 -60 -94 -88 -4 -99 -62 -212 -160 -311 -14 -14 -36 -51 -48
-82 -17 -41 -33 -62 -61 -79 -20 -12 -45 -38 -55 -57 -10 -18 -30 -39 -44 -46
-29 -13 -76 -100 -85 -157 -6 -37 -39 -70 -84 -84 -12 -4 -29 -22 -38 -39 -9
-18 -37 -56 -61 -84 -56 -66 -108 -142 -117 -169 -4 -12 -26 -34 -49 -48 -23
-15 -56 -47 -74 -71 -30 -40 -36 -43 -94 -50 -60 -7 -63 -6 -82 19 -17 24 -25
26 -85 26 -49 0 -78 -6 -106 -21 -32 -17 -43 -18 -65 -9 -61 25 -121 -42 -121
-135 0 -25 -5 -66 -11 -90 -21 -84 11 -155 69 -155 16 0 37 -7 48 -15 10 -8
32 -15 47 -15 15 0 41 -10 57 -21 38 -28 105 -22 160 15 35 23 47 26 89 20 42
-5 55 -2 106 27 41 23 67 46 88 81 17 26 34 48 40 48 5 0 52 41 104 90 51 50
102 90 113 90 20 0 55 39 66 73 3 12 16 36 28 52 12 17 30 52 40 79 16 41 28
54 82 88 56 36 68 49 109 124 25 46 52 84 60 84 8 0 29 18 46 40 21 26 41 40
55 40 13 0 60 10 105 21 77 21 83 21 109 5 16 -9 36 -16 45 -16 30 0 96 44
111 72 19 37 39 37 29 1 -23 -83 -7 -137 66 -226 14 -18 29 -50 32 -72 9 -53
74 -144 120 -168 34 -17 43 -18 103 -7 55 11 67 10 77 -2 20 -25 74 -58 94
-58 11 0 34 15 51 33 27 27 35 47 43 101 6 38 8 83 5 102 -9 43 -64 89 -134
109 -47 14 -55 20 -71 58 -10 23 -33 55 -50 72 -28 26 -31 34 -26 65 5 30 0
43 -34 88 -22 29 -43 70 -46 90 -4 20 -12 60 -18 87 -7 28 -11 55 -10 60 1 6
6 33 12 62 8 39 7 65 -3 105 -17 70 -12 225 9 288 9 27 14 58 10 69 -3 11 1
35 9 55 9 22 13 52 10 81 -3 25 2 77 10 115 16 70 15 106 -3 169 -12 40 -4
111 14 126 31 25 47 78 41 131 -5 42 -2 60 13 86 27 48 36 166 15 218 -23 58
-49 69 -109 48z m-279 -1448 c-3 -73 -6 -85 -27 -101 -13 -10 -39 -19 -56 -19
-31 0 -32 1 -26 33 3 17 18 46 34 62 16 17 32 46 35 65 20 106 45 80 40 -40z"/>
<path d="M12033 4009 c-17 -11 -41 -36 -52 -55 -11 -19 -27 -34 -36 -34 -22 0
-89 -44 -113 -75 -12 -14 -26 -43 -33 -62 -18 -57 -77 -151 -102 -164 -35 -18
-115 -110 -139 -159 -36 -73 -19 -199 31 -225 14 -7 37 -27 49 -45 24 -32 75
-60 111 -60 10 0 42 16 70 35 29 20 63 35 80 35 46 0 85 21 165 90 93 81 111
117 102 200 -6 49 -4 67 9 86 12 18 15 43 13 88 -2 56 1 66 25 95 21 26 27 43
27 82 0 82 -40 143 -113 174 -47 19 -55 19 -94 -6z"/>
</g>
</svg>